<?xml version="1.0" encoding="UTF-8"?><svg id="Layer_1" xmlns="http://www.w3.org/2000/svg" viewBox="0 0 534.19 122.37"><defs><style>.cls-1{fill:#1a4049;}.cls-2{fill:#fff;}.cls-3{fill:#4b7fa5;}</style></defs><rect class="cls-3" y="0" width="69.52" height="69.52" rx="8.24" ry="8.24"/><path class="cls-1" d="M92.89,116.07v-7.16l-7.99-14.04v-.4h4.46l5.29,11.01h.61l5.36-11.01h4.36v.4l-7.99,14.11v7.09h-4.1Z"/><path class="cls-1" d="M102.87,107.58c0-5.58,3.35-8.85,8.6-8.85s8.53,3.28,8.53,8.85-3.17,8.96-8.53,8.96-8.6-3.42-8.6-8.96ZM106.75,107.54c0,3.49,1.44,5.65,4.68,5.65s4.72-2.16,4.72-5.65-1.58-5.54-4.72-5.54-4.68,2.05-4.68,5.54Z"/><path class="cls-1" d="M134.44,111.61h-.36c-.94,3.13-3.1,4.93-5.9,4.93-3.56,0-5.26-2.41-5.26-6.08v-11.3h3.89v10.29c0,2.05.9,3.56,3.2,3.56,2.63,0,4.32-1.73,4.32-4.28v-9.58h3.89v16.92h-3.78v-4.46Z"/><path class="cls-1" d="M142.25,116.07v-16.92h3.67v5.08l.32.04c.97-4.1,2.56-5.29,5-5.29h.61v4.36h-.94c-3.56,0-4.82,1.26-4.82,4.72v8.03h-3.85Z"/><path class="cls-1" d="M168.78,102.14c-2.77,0-4.5,1.76-4.5,5.47,0,3.42,1.58,5.51,4.61,5.51,2.74,0,3.67-1.69,4.18-3.74l3.56.86c-.68,3.92-3.06,6.3-7.7,6.3-5.33,0-8.6-3.09-8.6-8.78s3.35-9.04,8.53-9.04c4.86,0,7.06,2.3,7.74,6.33l-3.64.68c-.5-2.16-1.51-3.6-4.18-3.6Z"/><path class="cls-1" d="M183.61,116.07h-3.85v-23.11h3.85v10.65h.29c.97-3.1,3.02-4.9,5.98-4.9,3.49,0,5.15,2.38,5.15,6.05v11.3h-3.85v-10.29c0-2.05-.94-3.56-3.2-3.56-2.63,0-4.36,1.73-4.36,4.28v9.57Z"/><path class="cls-1" d="M210.25,111.61h-.36c-.94,3.13-3.1,4.93-5.9,4.93-3.56,0-5.26-2.41-5.26-6.08v-11.3h3.89v10.29c0,2.05.9,3.56,3.2,3.56,2.63,0,4.32-1.73,4.32-4.28v-9.58h3.89v16.92h-3.78v-4.46Z"/><path class="cls-1" d="M218.06,116.07v-16.92h3.67v5.08l.32.04c.97-4.1,2.56-5.29,5-5.29h.61v4.36h-.94c-3.56,0-4.82,1.26-4.82,4.72v8.03h-3.85Z"/><path class="cls-1" d="M237.79,102.14c-2.77,0-4.5,1.76-4.5,5.47,0,3.42,1.58,5.51,4.61,5.51,2.74,0,3.67-1.69,4.18-3.74l3.56.86c-.68,3.92-3.06,6.3-7.7,6.3-5.33,0-8.6-3.09-8.6-8.78s3.35-9.04,8.53-9.04c4.86,0,7.06,2.3,7.74,6.33l-3.64.68c-.5-2.16-1.51-3.6-4.18-3.6Z"/><path class="cls-1" d="M252.62,116.07h-3.85v-23.11h3.85v10.65h.29c.97-3.1,3.02-4.9,5.98-4.9,3.49,0,5.15,2.38,5.15,6.05v11.3h-3.85v-10.29c0-2.05-.94-3.56-3.2-3.56-2.63,0-4.36,1.73-4.36,4.28v9.57Z"/><path class="cls-1" d="M269.79,94.47l-.54,9.72h-2.81l-.68-9.72h4.03Z"/><path class="cls-1" d="M271.23,111.07l3.49-.72c.54,2.05,1.73,3.35,4.46,3.35,2.05,0,3.13-.72,3.13-2.16,0-1.33-.94-1.98-4.28-2.59-4.5-.9-6.08-2.41-6.08-5.22,0-3.06,2.23-5,6.73-5s6.23,1.91,6.91,4.9l-3.49.76c-.47-2.09-1.48-2.88-3.49-2.88s-2.99.76-2.99,2.02c0,1.19.72,2.02,3.92,2.59,5,.94,6.52,2.63,6.52,5.29,0,3.13-2.09,5.15-6.95,5.15-5.47,0-7.27-2.23-7.88-5.47Z"/><path class="cls-1" d="M294.67,111.07l3.49-.72c.54,2.05,1.73,3.35,4.46,3.35,2.05,0,3.13-.72,3.13-2.16,0-1.33-.94-1.98-4.28-2.59-4.5-.9-6.08-2.41-6.08-5.22,0-3.06,2.23-5,6.73-5s6.23,1.91,6.91,4.9l-3.49.76c-.47-2.09-1.48-2.88-3.49-2.88s-2.99.76-2.99,2.02c0,1.19.72,2.02,3.92,2.59,5,.94,6.52,2.63,6.52,5.29,0,3.13-2.09,5.15-6.95,5.15-5.47,0-7.27-2.23-7.88-5.47Z"/><path class="cls-1" d="M311.52,107.58c0-5.58,3.35-8.85,8.6-8.85s8.53,3.28,8.53,8.85-3.17,8.96-8.53,8.96-8.6-3.42-8.6-8.96ZM315.4,107.54c0,3.49,1.44,5.65,4.68,5.65s4.72-2.16,4.72-5.65-1.58-5.54-4.72-5.54-4.68,2.05-4.68,5.54Z"/><path class="cls-1" d="M335.56,116.07h-3.85v-16.92h3.78v4.46h.32c.94-3.13,3.1-4.9,5.94-4.9,3.53,0,5.22,2.38,5.22,6.05v11.3h-3.85v-10.29c0-2.05-.9-3.56-3.24-3.56-2.59,0-4.32,1.73-4.32,4.28v9.57Z"/><path class="cls-1" d="M357.45,122.26c-6.41,0-8.28-1.37-8.28-3.53,0-1.48,1.58-2.56,3.89-3.06v-.14c-1.51-.29-2.3-1.08-2.3-2.27,0-.9.72-1.69,1.91-2.27l1.3-.72c-2.52-.83-3.85-2.66-3.85-5.22,0-3.82,2.77-5.9,7.45-5.9h8.39v2.99h-1.94c-.9,0-1.98-.07-3.42-.18l-.04.32c2.23.43,4.1,1.37,4.1,3.6,0,3.02-2.56,4.86-7.27,4.86-1.08,0-2.02-.11-2.84-.32l-.4.61c-.25.43-.43.72-.43,1.08,0,.68.54.94,1.66.94,1.91,0,3.85-.04,5.69-.04,3.56,0,5.29,1.55,5.29,4.18,0,3.42-2.2,5.08-8.89,5.08ZM363.25,117.29c0-.97-.68-1.66-2.34-1.66h-5.94c-1.84,0-2.77.94-2.77,1.87,0,1.37,1.08,1.94,5.47,1.94s5.58-.72,5.58-2.16ZM353.6,105.13c0,1.8,1.01,2.95,3.82,2.95s3.92-1.15,3.92-2.95-1.3-2.95-3.96-2.95-3.78,1.19-3.78,2.95Z"/><path class="cls-1" d="M379.66,116.07h-3.89v-23.11h3.89v23.11Z"/><path class="cls-1" d="M383.88,96.27v-3.13h4.21v3.13h-4.21ZM384.02,116.07v-16.92h3.89v16.92h-3.89Z"/><path class="cls-1" d="M396.04,103.54h.25c.9-2.92,2.77-4.82,5.83-4.82,4,0,6.23,3.17,6.23,8.93s-2.34,8.89-6.16,8.89c-3.1,0-5.08-2.02-5.9-4.97h-.25v4.5h-3.85v-23.11h3.85v10.58ZM404.54,107.65c0-3.67-1.3-5.44-4.14-5.44-2.66,0-4.36,1.87-4.36,4.82v1.29c0,2.84,1.73,4.79,4.32,4.79,2.84,0,4.18-1.84,4.18-5.47Z"/><path class="cls-1" d="M411.42,116.07v-16.92h3.67v5.08l.32.04c.97-4.1,2.56-5.29,5-5.29h.61v4.36h-.94c-3.56,0-4.82,1.26-4.82,4.72v8.03h-3.85Z"/><path class="cls-1" d="M433.99,112.04h-.4c-.86,2.74-2.81,4.39-5.79,4.39s-5.15-1.44-5.15-4.75c0-3.02,1.84-5.22,6.12-5.22h5.04v-1.15c0-2.2-.9-3.46-3.28-3.46-1.98,0-3.13,1.01-3.56,2.99l-3.67-.83c.65-3.2,3.06-5.25,7.38-5.25,4.9,0,6.98,2.3,6.98,6.51v10.8h-3.67v-4.03ZM433.81,109.7v-.68h-4.39c-1.94,0-3.06.72-3.06,2.12,0,1.22.76,2.27,2.95,2.27,2.7,0,4.5-1.58,4.5-3.71Z"/><path class="cls-1" d="M441.58,116.07v-16.92h3.67v5.08l.32.04c.97-4.1,2.56-5.29,5-5.29h.61v4.36h-.94c-3.56,0-4.82,1.26-4.82,4.72v8.03h-3.85Z"/><path class="cls-1" d="M451.95,122.15l.61-3.49c.72.14,1.44.25,2.16.25,1.91,0,2.92-.47,4.03-3.02l-6.8-16.74h4.25l1.98,6.12c.68,2.12,1.62,4.93,2.34,7.38h.58c.76-2.52,1.58-5.22,2.23-7.31l1.84-6.19h4.14l-6.98,17.13c-1.73,4.21-3.82,6.08-7.7,6.08-1.12,0-1.87-.11-2.66-.22Z"/><path class="cls-3" d="M88.37,47.36l16.42-3.55c1.25,5.66,5.76,7.68,10.94,7.68,4.61,0,7.2-1.06,7.2-3.65,0-2.88-2.02-4.61-12.38-6.24-16.03-2.4-20.93-8.83-20.93-18.91,0-11.61,8.06-18.05,24.86-18.05s23.23,7.1,24.57,16.7l-17.18,3.26c-.96-4.51-2.78-6.82-8.35-6.82-4.61,0-6.82,1.34-6.82,4.03,0,2.3.86,4.13,11.33,5.86,18.72,3.17,22.27,10.46,22.27,19.1,0,11.61-7.58,18.33-25.34,18.33-19.87,0-25.54-8.64-26.59-17.76Z"/><path class="cls-3" d="M144.53,40.73c0-15.36,9.12-24.38,24.19-24.38s24,9.02,24,24.38-9.21,24.38-24,24.38-24.19-9.12-24.19-24.38ZM160.85,40.73c0,7.01,2.02,10.66,7.78,10.66s7.87-3.65,7.87-10.66-2.02-10.85-7.87-10.85-7.78,3.84-7.78,10.85Z"/><path class="cls-3" d="M214.71,63.67h-16.32V17.79h15.84v12.38h1.06c2.78-9.41,8.06-13.82,14.78-13.82,7.78,0,12.1,5.76,12.1,15.74v31.58h-16.32v-26.88c0-3.65-1.73-5.76-4.99-5.76-3.84,0-6.14,3.07-6.14,7.49v25.15Z"/><path class="cls-3" d="M245.43,72.03c0-4.13,5.09-7.01,11.13-8.26v-.58c-6.24-.77-8.06-3.46-8.06-6.53,0-2.78,2.02-5.47,6.53-7.1l3.26-1.44c-7.01-2.21-10.94-7.01-10.94-14.4,0-10.18,7.97-15.94,21.6-15.94h23.9v11.9h-4.7c-2.21,0-4.99-.1-8.54-.29v.96c5.38.96,9.89,2.69,9.89,7.3,0,7.01-7.68,11.81-20.64,11.81-2.78,0-5.38-.19-7.68-.67l-.29.67c-.29.67-.58,1.54-.58,2.21,0,1.34.77,1.92,3.65,1.92,4.9,0,9.89-.29,14.5-.29,10.85,0,15.36,4.8,15.36,12.48,0,9.98-6.62,15.26-25.82,15.17-17.66.1-22.56-3.46-22.56-8.93ZM281.52,66.27c0-1.82-1.15-2.88-3.94-2.88h-15.07c-2.97,0-5.18,1.15-5.18,3.07,0,2.4,1.73,3.55,11.9,3.55s12.29-1.25,12.29-3.74ZM261.75,34.49c0,2.3,1.54,4.7,7.1,4.7s7.1-2.4,7.1-4.7c0-2.59-1.92-4.7-7.1-4.7-5.57,0-7.1,2.3-7.1,4.7Z"/><path class="cls-3" d="M295.64,47.36l16.41-3.55c1.25,5.66,5.76,7.68,10.94,7.68,4.61,0,7.2-1.06,7.2-3.65,0-2.88-2.02-4.61-12.38-6.24-16.03-2.4-20.93-8.83-20.93-18.91,0-11.61,8.06-18.05,24.86-18.05s23.23,7.1,24.57,16.7l-17.18,3.26c-.96-4.51-2.78-6.82-8.35-6.82-4.61,0-6.82,1.34-6.82,4.03,0,2.3.86,4.13,11.33,5.86,18.72,3.17,22.27,10.46,22.27,19.1,0,11.61-7.58,18.33-25.34,18.33-19.87,0-25.53-8.64-26.59-17.76Z"/><path class="cls-3" d="M355.73,30.46h-4.7v-12.67h4.7V6.56h16.32v11.23h10.46v12.67h-10.46v15.36c0,2.69.96,3.94,4.13,3.94,1.82,0,4.13-.67,5.38-1.06l1.73,14.59c-3.74,1.15-5.95,1.82-11.52,1.82-11.42,0-16.03-7.49-16.03-16.32v-18.33Z"/><path class="cls-3" d="M414.96,52.73h-1.44c-2.21,7.1-6.53,11.9-14.11,11.9-7.01,0-12.96-4.03-12.96-13.25,0-8.16,4.8-13.63,17.47-13.63h10.18v-3.17c0-3.36-1.63-5.38-5.09-5.38-3.07,0-4.9,1.54-5.47,4.9l-15.26-3.36c1.34-7.97,7.58-14.3,21.41-14.3,14.78,0,20.64,6.62,20.64,18.24v28.99h-15.36v-10.94ZM414.1,45.63v-1.73h-6.72c-3.17,0-5.57,1.73-5.57,4.32s1.34,4.22,5.28,4.22c4.32,0,7.01-2.88,7.01-6.82Z"/><path class="cls-3" d="M459.69,30.56c-4.22,0-7.01,2.78-7.01,9.98,0,6.62,2.21,10.46,7.2,10.46,4.13,0,5.95-3.26,6.62-7.1l14.88,3.46c-1.25,10.85-7.78,17.76-21.41,17.76-14.59,0-24-7.58-24-23.52s8.83-25.25,24-25.25c14.21,0,19.87,6.82,21.41,18.24l-14.97,2.69c-.96-3.65-2.4-6.72-6.72-6.72Z"/><path class="cls-3" d="M503.76,34.59h2.59l8.83-16.8h18.53v1.06l-14.4,21.21,14.88,22.56v1.06h-18.53l-9.7-17.47h-2.21v17.47h-16.32V2.05h16.32v32.54Z"/><path class="cls-2" d="M48.68,25.84l3.59-5.69-11.84-7.47c-1.04-.65-2.34-.69-3.42-.1-1.07.59-1.74,1.72-1.74,2.94v18.47c-1.69-.87-3.61-1.37-5.64-1.37-6.83,0-12.37,5.54-12.37,12.37s5.54,12.37,12.37,12.37,12.37-5.54,12.37-12.37c0-.03,0-.05,0-.08v-23.3l6.69,4.22Z"/></svg>