<?xml version="1.0" encoding="UTF-8"?><svg id="Layer_1" xmlns="http://www.w3.org/2000/svg" viewBox="0 0 534.19 80.95"><defs><style>.cls-1{fill:#fff;}.cls-2{fill:#4b7fa5;}</style></defs><rect class="cls-2" y="0" width="69.52" height="69.52" rx="8.24" ry="8.24"/><path class="cls-2" d="M88.37,47.36l16.42-3.55c1.25,5.66,5.76,7.68,10.94,7.68,4.61,0,7.2-1.06,7.2-3.65,0-2.88-2.02-4.61-12.38-6.24-16.03-2.4-20.93-8.83-20.93-18.91,0-11.61,8.06-18.05,24.86-18.05s23.23,7.1,24.57,16.7l-17.18,3.26c-.96-4.51-2.78-6.82-8.35-6.82-4.61,0-6.82,1.34-6.82,4.03,0,2.3.86,4.13,11.33,5.86,18.72,3.17,22.27,10.46,22.27,19.1,0,11.61-7.58,18.33-25.34,18.33-19.87,0-25.54-8.64-26.59-17.76Z"/><path class="cls-2" d="M144.53,40.73c0-15.36,9.12-24.38,24.19-24.38s24,9.02,24,24.38-9.21,24.38-24,24.38-24.19-9.12-24.19-24.38ZM160.85,40.73c0,7.01,2.02,10.66,7.78,10.66s7.87-3.65,7.87-10.66-2.02-10.85-7.87-10.85-7.78,3.84-7.78,10.85Z"/><path class="cls-2" d="M214.71,63.67h-16.32V17.79h15.84v12.38h1.06c2.78-9.41,8.06-13.82,14.78-13.82,7.78,0,12.1,5.76,12.1,15.74v31.58h-16.32v-26.88c0-3.65-1.73-5.76-4.99-5.76-3.84,0-6.14,3.07-6.14,7.49v25.15Z"/><path class="cls-2" d="M245.43,72.03c0-4.13,5.09-7.01,11.13-8.26v-.58c-6.24-.77-8.06-3.46-8.06-6.53,0-2.78,2.02-5.47,6.53-7.1l3.26-1.44c-7.01-2.21-10.94-7.01-10.94-14.4,0-10.18,7.97-15.94,21.6-15.94h23.9v11.9h-4.7c-2.21,0-4.99-.1-8.54-.29v.96c5.38.96,9.89,2.69,9.89,7.3,0,7.01-7.68,11.81-20.64,11.81-2.78,0-5.38-.19-7.68-.67l-.29.67c-.29.67-.58,1.54-.58,2.21,0,1.34.77,1.92,3.65,1.92,4.9,0,9.89-.29,14.5-.29,10.85,0,15.36,4.8,15.36,12.48,0,9.98-6.62,15.26-25.82,15.17-17.66.1-22.56-3.46-22.56-8.93ZM281.52,66.27c0-1.82-1.15-2.88-3.94-2.88h-15.07c-2.97,0-5.18,1.15-5.18,3.07,0,2.4,1.73,3.55,11.9,3.55s12.29-1.25,12.29-3.74ZM261.75,34.49c0,2.3,1.54,4.7,7.1,4.7s7.1-2.4,7.1-4.7c0-2.59-1.92-4.7-7.1-4.7-5.57,0-7.1,2.3-7.1,4.7Z"/><path class="cls-2" d="M295.64,47.36l16.41-3.55c1.25,5.66,5.76,7.68,10.94,7.68,4.61,0,7.2-1.06,7.2-3.65,0-2.88-2.02-4.61-12.38-6.24-16.03-2.4-20.93-8.83-20.93-18.91,0-11.61,8.06-18.05,24.86-18.05s23.23,7.1,24.57,16.7l-17.18,3.26c-.96-4.51-2.78-6.82-8.35-6.82-4.61,0-6.82,1.34-6.82,4.03,0,2.3.86,4.13,11.33,5.86,18.72,3.17,22.27,10.46,22.27,19.1,0,11.61-7.58,18.33-25.34,18.33-19.87,0-25.53-8.64-26.59-17.76Z"/><path class="cls-2" d="M355.73,30.46h-4.7v-12.67h4.7V6.56h16.32v11.23h10.46v12.67h-10.46v15.36c0,2.69.96,3.94,4.13,3.94,1.82,0,4.13-.67,5.38-1.06l1.73,14.59c-3.74,1.15-5.95,1.82-11.52,1.82-11.42,0-16.03-7.49-16.03-16.32v-18.33Z"/><path class="cls-2" d="M414.96,52.73h-1.44c-2.21,7.1-6.53,11.9-14.11,11.9-7.01,0-12.96-4.03-12.96-13.25,0-8.16,4.8-13.63,17.47-13.63h10.18v-3.17c0-3.36-1.63-5.38-5.09-5.38-3.07,0-4.9,1.54-5.47,4.9l-15.26-3.36c1.34-7.97,7.58-14.3,21.41-14.3,14.78,0,20.64,6.62,20.64,18.24v28.99h-15.36v-10.94ZM414.1,45.63v-1.73h-6.72c-3.17,0-5.57,1.73-5.57,4.32s1.34,4.22,5.28,4.22c4.32,0,7.01-2.88,7.01-6.82Z"/><path class="cls-2" d="M459.69,30.56c-4.22,0-7.01,2.78-7.01,9.98,0,6.62,2.21,10.46,7.2,10.46,4.13,0,5.95-3.26,6.62-7.1l14.88,3.46c-1.25,10.85-7.78,17.76-21.41,17.76-14.59,0-24-7.58-24-23.52s8.83-25.25,24-25.25c14.21,0,19.87,6.82,21.41,18.24l-14.97,2.69c-.96-3.65-2.4-6.72-6.72-6.72Z"/><path class="cls-2" d="M503.76,34.59h2.59l8.83-16.8h18.53v1.06l-14.4,21.21,14.88,22.56v1.06h-18.53l-9.7-17.47h-2.21v17.47h-16.32V2.05h16.32v32.54Z"/><path class="cls-1" d="M48.68,25.84l3.59-5.69-11.84-7.47c-1.04-.65-2.34-.69-3.42-.1-1.07.59-1.74,1.72-1.74,2.94v18.47c-1.69-.87-3.61-1.37-5.64-1.37-6.83,0-12.37,5.54-12.37,12.37s5.54,12.37,12.37,12.37,12.37-5.54,12.37-12.37c0-.03,0-.05,0-.08v-23.3l6.69,4.22Z"/></svg>